<svg width="32" height="33" viewBox="0 0 32 33" fill="none" xmlns="http://www.w3.org/2000/svg">
<rect y="0.597168" width="32" height="32" rx="8" fill="#5A72EA"/>
<g clip-path="url(#clip0_1_409)">
<path fill-rule="evenodd" clip-rule="evenodd" d="M16 8.59717C11.5833 8.59717 8 12.1805 8 16.5972C8 21.0138 11.5833 24.5972 16 24.5972C20.408 24.5972 24 21.0138 24 16.5972C24 12.1805 20.408 8.59717 16 8.59717ZM21.284 12.2845C22.269 13.4841 22.814 14.9844 22.8287 16.5365C22.6033 16.4932 20.3473 16.0332 18.074 16.3198C18.0213 16.2065 17.978 16.0852 17.926 15.9638C17.7846 15.6301 17.6343 15.3002 17.4753 14.9745C19.9913 13.9505 21.1367 12.4758 21.284 12.2845ZM16 9.77783C17.7353 9.77783 19.3233 10.4278 20.5293 11.4952C20.408 11.6685 19.3753 13.0485 16.946 13.9592C15.826 11.9032 14.586 10.2192 14.3947 9.95917C14.9209 9.83629 15.4596 9.77521 16 9.77717V9.77783ZM13.0933 10.4192C13.2753 10.6625 14.49 12.3545 15.6267 14.3672C12.4333 15.2178 9.61333 15.2005 9.31 15.2005C9.75267 13.0832 11.1847 11.3218 13.0933 10.4192ZM9.16267 16.6058V16.3978C9.458 16.4065 12.772 16.4498 16.1827 15.4258C16.382 15.8078 16.564 16.1978 16.7373 16.5885C16.6507 16.6145 16.5553 16.6405 16.4687 16.6665C12.946 17.8032 11.0713 20.9092 10.9153 21.1698C9.78694 19.9175 9.16253 18.2915 9.16267 16.6058ZM16 23.4345C14.4813 23.4369 13.0058 22.9299 11.8093 21.9945C11.9307 21.7425 13.3187 19.0698 17.1713 17.7252C17.1887 17.7165 17.198 17.7165 17.2147 17.7078C18.178 20.1978 18.568 22.2892 18.6727 22.8878C17.848 23.2438 16.946 23.4345 16 23.4345ZM19.8093 22.2632C19.74 21.8465 19.3753 19.8512 18.4813 17.3952C20.6247 17.0572 22.4987 17.6125 22.7333 17.6905C22.438 19.5905 21.3447 21.2305 19.8093 22.2632Z" fill="white"/>
</g>
<defs>
<clipPath id="clip0_1_409">
<rect width="16" height="16" fill="white" transform="translate(8 8.59717)"/>
</clipPath>
</defs>
</svg>
