<svg width="32" height="33" viewBox="0 0 32 33" fill="none" xmlns="http://www.w3.org/2000/svg">
<rect y="0.597168" width="32" height="32" rx="8" fill="#5A72EA"/>
<path fill-rule="evenodd" clip-rule="evenodd" d="M12.9766 9.30792C13.7586 9.27192 14.008 9.26392 16 9.26392C17.992 9.26392 18.2413 9.27258 19.0226 9.30792C19.804 9.34325 20.3373 9.46792 20.804 9.64858C21.2926 9.83325 21.736 10.1219 22.1026 10.4952C22.476 10.8612 22.764 11.3039 22.948 11.7932C23.1293 12.2599 23.2533 12.7932 23.2893 13.5732C23.3253 14.3566 23.3333 14.6059 23.3333 16.5972C23.3333 18.5892 23.3246 18.8386 23.2893 19.6206C23.254 20.4006 23.1293 20.9339 22.948 21.4006C22.764 21.89 22.4755 22.3334 22.1026 22.6999C21.736 23.0732 21.2926 23.3612 20.804 23.5452C20.3373 23.7266 19.804 23.8506 19.024 23.8866C18.2413 23.9226 17.992 23.9306 16 23.9306C14.008 23.9306 13.7586 23.9219 12.9766 23.8866C12.1966 23.8512 11.6633 23.7266 11.1966 23.5452C10.7072 23.3612 10.2638 23.0728 9.89729 22.6999C9.52421 22.3337 9.2355 21.8905 9.05129 21.4012C8.87063 20.9346 8.74663 20.4012 8.71063 19.6212C8.67463 18.8379 8.66663 18.5886 8.66663 16.5972C8.66663 14.6052 8.67529 14.3559 8.71063 13.5746C8.74596 12.7932 8.87063 12.2599 9.05129 11.7932C9.23577 11.304 9.52471 10.8608 9.89796 10.4946C10.264 10.1216 10.7069 9.83288 11.196 9.64858C11.6626 9.46792 12.196 9.34392 12.976 9.30792H12.9766ZM18.9633 10.6279C18.19 10.5926 17.958 10.5852 16 10.5852C14.042 10.5852 13.81 10.5926 13.0366 10.6279C12.3213 10.6606 11.9333 10.7799 11.6746 10.8806C11.3326 11.0139 11.088 11.1719 10.8313 11.4286C10.588 11.6653 10.4007 11.9534 10.2833 12.2719C10.1826 12.5306 10.0633 12.9186 10.0306 13.6339C9.99529 14.4072 9.98796 14.6392 9.98796 16.5972C9.98796 18.5552 9.99529 18.7872 10.0306 19.5606C10.0633 20.2759 10.1826 20.6639 10.2833 20.9226C10.4006 21.2406 10.588 21.5293 10.8313 21.7659C11.068 22.0092 11.3566 22.1966 11.6746 22.3139C11.9333 22.4146 12.3213 22.5339 13.0366 22.5666C13.81 22.6019 14.0413 22.6092 16 22.6092C17.9586 22.6092 18.19 22.6019 18.9633 22.5666C19.6786 22.5339 20.0666 22.4146 20.3253 22.3139C20.6673 22.1806 20.912 22.0226 21.1686 21.7659C21.412 21.5293 21.5993 21.2406 21.7166 20.9226C21.8173 20.6639 21.9366 20.2759 21.9693 19.5606C22.0046 18.7872 22.012 18.5552 22.012 16.5972C22.012 14.6392 22.0046 14.4072 21.9693 13.6339C21.9366 12.9186 21.8173 12.5306 21.7166 12.2719C21.5833 11.9299 21.4253 11.6852 21.1686 11.4286C20.9319 11.1853 20.6438 10.9981 20.3253 10.8806C20.0666 10.7799 19.6786 10.6606 18.9633 10.6279ZM15.0633 18.8579C15.5864 19.0757 16.1689 19.1051 16.7112 18.9411C17.2536 18.7771 17.7222 18.4299 18.037 17.9587C18.3518 17.4876 18.4933 16.9218 18.4373 16.358C18.3813 15.7941 18.1313 15.2672 17.73 14.8672C17.4741 14.6116 17.1648 14.4158 16.8242 14.294C16.4836 14.1722 16.1202 14.1275 15.7603 14.163C15.4003 14.1985 15.0527 14.3134 14.7425 14.4993C14.4323 14.6853 14.1671 14.9377 13.9662 15.2385C13.7652 15.5392 13.6334 15.8808 13.5803 16.2386C13.5272 16.5963 13.5541 16.9614 13.659 17.3076C13.7639 17.6537 13.9443 17.9723 14.1871 18.2404C14.4299 18.5085 14.7292 18.7194 15.0633 18.8579ZM13.3346 13.9319C13.6846 13.5819 14.1002 13.3043 14.5575 13.1148C15.0148 12.9254 15.505 12.8279 16 12.8279C16.495 12.8279 16.9851 12.9254 17.4424 13.1148C17.8997 13.3043 18.3153 13.5819 18.6653 13.9319C19.0153 14.2819 19.293 14.6975 19.4824 15.1548C19.6718 15.6121 19.7693 16.1023 19.7693 16.5972C19.7693 17.0922 19.6718 17.5824 19.4824 18.0397C19.293 18.497 19.0153 18.9126 18.6653 19.2626C17.9584 19.9695 16.9997 20.3666 16 20.3666C15.0003 20.3666 14.0415 19.9695 13.3346 19.2626C12.6277 18.5557 12.2306 17.5969 12.2306 16.5972C12.2306 15.5976 12.6277 14.6388 13.3346 13.9319ZM20.6053 13.3892C20.692 13.3074 20.7615 13.209 20.8095 13.0999C20.8575 12.9908 20.8832 12.8731 20.8849 12.7539C20.8866 12.6346 20.8644 12.5163 20.8196 12.4058C20.7748 12.2953 20.7082 12.1949 20.6239 12.1106C20.5396 12.0263 20.4392 11.9598 20.3288 11.9149C20.2183 11.8701 20.0999 11.8479 19.9807 11.8496C19.8614 11.8514 19.7438 11.877 19.6346 11.925C19.5255 11.9731 19.4271 12.0425 19.3453 12.1292C19.1862 12.2979 19.099 12.522 19.1024 12.7539C19.1058 12.9857 19.1994 13.2072 19.3634 13.3711C19.5274 13.5351 19.7488 13.6287 19.9807 13.6321C20.2125 13.6355 20.4366 13.5484 20.6053 13.3892Z" fill="white"/>
</svg>
