<svg width="103" height="31" viewBox="0 0 103 31" fill="none" xmlns="http://www.w3.org/2000/svg">
<path fill-rule="evenodd" clip-rule="evenodd" d="M31.8689 0.918945V30.1496H26.0061V11.1371L18.1749 30.1496H13.7359L5.86288 11.1371V30.1496H0V0.918945H6.65856L15.9554 22.6535L25.2523 0.918945H31.8689ZM59.2581 18.1176C59.2581 18.9551 59.2023 19.7089 59.0906 20.379H42.1301C42.2697 22.0541 42.856 23.3662 43.889 24.3155C44.922 25.2647 46.1923 25.7393 47.6999 25.7393C49.8775 25.7393 51.427 24.804 52.3483 22.9335H58.6718C58.0018 25.167 56.7175 27.0096 54.8191 28.4614C52.9206 29.8852 50.5894 30.5971 47.8255 30.5971C45.592 30.5971 43.5819 30.1085 41.7951 29.1314C40.0363 28.1263 38.6543 26.7165 37.6492 24.9018C36.6721 23.0871 36.1835 20.9932 36.1835 18.6201C36.1835 16.2191 36.6721 14.1113 37.6492 12.2966C38.6264 10.4819 39.9944 9.08594 41.7532 8.10879C43.5121 7.13164 45.5362 6.64307 47.8255 6.64307C50.0311 6.64307 51.9993 7.11768 53.7303 8.06691C55.4891 9.01614 56.8432 10.3702 57.7924 12.129C58.7696 13.86 59.2581 15.8562 59.2581 18.1176ZM72.3061 7.66126C71.1056 8.35922 70.1285 9.3224 69.3747 10.5508V6.94934H63.5118V30.1496H69.3747V18.5913C69.3747 16.4416 69.8354 14.934 70.7567 14.0685C71.7059 13.2031 74.6513 12.7703 76.4939 12.7703V6.61431C74.9305 6.61431 73.5346 6.9633 72.3061 7.66126ZM93.2993 6.61431C96.0632 6.61431 98.2967 7.49375 99.9997 9.25261C101.703 10.9836 102.554 13.4125 102.554 16.5393V30.1496H96.6914V17.335C96.6914 15.4924 96.2308 14.0825 95.3094 13.1054C94.3881 12.1003 93.1318 11.5978 91.5404 11.5978C89.9212 11.5978 88.6369 12.1003 87.6877 13.1054C86.7664 14.0825 86.3057 15.4924 86.3057 17.335V30.1496H80.4428V6.94934H86.3057V9.8389C87.0874 8.83383 88.0786 8.05212 89.279 7.49375C90.5075 6.90746 91.8475 6.61431 93.2993 6.61431ZM41.9977 13.3655C41.9977 14 42.2498 14.6085 42.6984 15.0571C43.147 15.5057 43.7555 15.7578 44.39 15.7578C45.0244 15.7578 45.6329 15.5057 46.0815 15.0571C46.5302 14.6085 46.7822 14 46.7822 13.3655L44.39 13.3655H41.9977ZM50.3901 15.0571C49.9414 14.6085 49.6894 14 49.6894 13.3655H52.0816L54.4739 13.3655C54.4739 14 54.2218 14.6085 53.7732 15.0571C53.3246 15.5057 52.7161 15.7578 52.0816 15.7578C51.4472 15.7578 50.8387 15.5057 50.3901 15.0571Z" fill="#5A72EA"/>
</svg>
