<svg width="32" height="33" viewBox="0 0 32 33" fill="none" xmlns="http://www.w3.org/2000/svg">
<rect y="0.597168" width="32" height="32" rx="8" fill="#5A72EA"/>
<path d="M23.5 17.0533C23.5 17.0189 23.5 16.9799 23.4984 16.9346C23.4969 16.808 23.4938 16.6658 23.4906 16.5143C23.4781 16.0783 23.4563 15.6439 23.4219 15.2346C23.375 14.6705 23.3062 14.2002 23.2125 13.8471C23.1136 13.4786 22.9196 13.1425 22.6501 12.8724C22.3806 12.6023 22.0449 12.4077 21.6766 12.308C21.2344 12.1893 20.3687 12.1158 19.15 12.0705C18.5703 12.0486 17.95 12.0346 17.3297 12.0268C17.1125 12.0236 16.9109 12.0221 16.7297 12.0205H16.2703C16.0891 12.0221 15.8875 12.0236 15.6703 12.0268C15.05 12.0346 14.4297 12.0486 13.85 12.0705C12.6312 12.1174 11.7641 12.1908 11.3234 12.308C10.955 12.4074 10.6192 12.602 10.3496 12.8721C10.08 13.1422 9.88619 13.4784 9.7875 13.8471C9.69219 14.2002 9.625 14.6705 9.57812 15.2346C9.54375 15.6439 9.52187 16.0783 9.50937 16.5143C9.50469 16.6658 9.50312 16.808 9.50156 16.9346C9.50156 16.9799 9.5 17.0189 9.5 17.0533V17.1408C9.5 17.1752 9.5 17.2143 9.50156 17.2596C9.50312 17.3861 9.50625 17.5283 9.50937 17.6799C9.52187 18.1158 9.54375 18.5502 9.57812 18.9596C9.625 19.5236 9.69375 19.9939 9.7875 20.3471C9.9875 21.0955 10.575 21.6861 11.3234 21.8861C11.7641 22.0049 12.6312 22.0783 13.85 22.1236C14.4297 22.1455 15.05 22.1596 15.6703 22.1674C15.8875 22.1705 16.0891 22.1721 16.2703 22.1736H16.7297C16.9109 22.1721 17.1125 22.1705 17.3297 22.1674C17.95 22.1596 18.5703 22.1455 19.15 22.1236C20.3687 22.0768 21.2359 22.0033 21.6766 21.8861C22.425 21.6861 23.0125 21.0971 23.2125 20.3471C23.3078 19.9939 23.375 19.5236 23.4219 18.9596C23.4563 18.5502 23.4781 18.1158 23.4906 17.6799C23.4953 17.5283 23.4969 17.3861 23.4984 17.2596C23.4984 17.2143 23.5 17.1752 23.5 17.1408V17.0533ZM22.375 17.1346C22.375 17.1674 22.375 17.2033 22.3734 17.2455C22.3719 17.3674 22.3688 17.5018 22.3656 17.6471C22.3547 18.0627 22.3328 18.4783 22.3 18.8643C22.2578 19.3674 22.1984 19.7799 22.125 20.0564C22.0281 20.4174 21.7437 20.7033 21.3844 20.7986C21.0562 20.8861 20.2297 20.9564 19.1062 20.9986C18.5375 21.0205 17.925 21.0346 17.3141 21.0424C17.1 21.0455 16.9016 21.0471 16.7234 21.0471H16.2766L15.6859 21.0424C15.075 21.0346 14.4641 21.0205 13.8938 20.9986C12.7703 20.9549 11.9422 20.8861 11.6156 20.7986C11.2562 20.7018 10.9719 20.4174 10.875 20.0564C10.8016 19.7799 10.7422 19.3674 10.7 18.8643C10.6672 18.4783 10.6469 18.0627 10.6344 17.6471C10.6297 17.5018 10.6281 17.3658 10.6266 17.2455C10.6266 17.2033 10.625 17.1658 10.625 17.1346V17.0596C10.625 17.0268 10.625 16.9908 10.6266 16.9486C10.6281 16.8268 10.6313 16.6924 10.6344 16.5471C10.6453 16.1314 10.6672 15.7158 10.7 15.3299C10.7422 14.8268 10.8016 14.4143 10.875 14.1377C10.9719 13.7768 11.2562 13.4908 11.6156 13.3955C11.9437 13.308 12.7703 13.2377 13.8938 13.1955C14.4625 13.1736 15.075 13.1596 15.6859 13.1518C15.9 13.1486 16.0984 13.1471 16.2766 13.1471H16.7234L17.3141 13.1518C17.925 13.1596 18.5359 13.1736 19.1062 13.1955C20.2297 13.2393 21.0578 13.308 21.3844 13.3955C21.7437 13.4924 22.0281 13.7768 22.125 14.1377C22.1984 14.4143 22.2578 14.8268 22.3 15.3299C22.3328 15.7158 22.3531 16.1314 22.3656 16.5471C22.3703 16.6924 22.3719 16.8283 22.3734 16.9486C22.3734 16.9908 22.375 17.0283 22.375 17.0596V17.1346ZM15.1094 19.1908L18.7344 17.0814L15.1094 15.0033V19.1908Z" fill="white"/>
</svg>
